<?xml version="1.0" encoding="utf-8" ?><svg xmlns="http://www.w3.org/2000/svg" xmlns:xlink="http://www.w3.org/1999/xlink" width="1021" height="1021" viewBox="0 0 1021 1021"><path transform="matrix(0.99707 0 0 0.99707 0 3.05176e-05)" d="M344.073 80.5912C352.456 80.0748 361.534 81.3026 369.952 81.7056L422.961 84.2583C446.49 85.3377 470.013 86.5532 493.528 87.9047C505.887 88.5714 518.496 88.6381 530.767 90.2613C542.893 91.8653 556.7 97.8242 568.396 101.84L638.591 126.275L741.902 162.594C750.699 165.744 773.786 172.893 780.17 177.132C784.049 179.708 787.626 183.977 790.922 187.313C808.964 205.837 825.936 225.374 841.756 245.828C873.061 286.511 904.14 327.366 934.994 368.392L962.964 405.245C968.017 411.904 973.897 418.633 978.075 425.853C979.518 428.346 980.516 431.492 980.052 434.387C979.769 436.15 979.108 437.471 977.978 438.836C974 443.639 968.288 447.638 963.494 451.603C955.45 458.269 947.369 464.891 939.251 471.467C890.204 510.966 840.169 549.221 789.193 586.197C726.396 632.865 662.952 678.654 598.877 723.552C571.083 742.713 543.023 761.485 514.705 779.863C490.882 795.02 466.332 809.401 441.941 823.631C433.44 828.59 412.818 841.755 404.184 844.346C400.23 845.533 397.609 844.988 394.063 842.873C392.259 841.798 390.555 840.298 389.379 838.552C387.094 835.157 385.248 831.246 383.246 827.665L371.142 806.057L325.738 723.833L170.786 443.82C154.001 414.156 137.379 384.4 120.92 354.553C115.598 344.762 107.785 334.279 104.975 323.484C103.248 316.852 102.643 309.652 101.577 302.863L95.2827 263.624C92.7751 248.426 90.3458 233.216 87.9948 217.993C86.7017 210.078 84.5226 201.635 84.1151 193.649C83.9791 190.982 84.66 188.069 86.0885 185.802C87.3368 183.777 89.1671 182.175 91.3401 181.207C106.564 174.389 122.595 168.701 138.102 162.51L241.896 121.097C264.264 111.917 286.698 102.899 309.197 94.0429C320.596 89.4454 332.097 83.42 344.073 80.5912Z"/><path fill="#9C01F5" transform="matrix(0.99707 0 0 0.99707 0 3.05176e-05)" d="M424.109 501.877C437.556 503.359 451.047 504.178 464.525 505.317L560.179 513.092L768.271 529.722L594.196 669.415L405.355 817.777L397.974 804.608L415.228 605.517L420.908 538.962C421.956 526.608 422.735 514.197 424.109 501.877Z"/><path fill="#9C01F5" transform="matrix(0.99707 0 0 0.99707 0 3.05176e-05)" d="M351.698 105.955C352.606 105.936 353.513 105.929 354.421 105.935C364.389 106.02 374.48 106.891 384.44 107.4L450.215 110.857L501.675 113.521C511.112 114.026 521.111 113.924 530.407 115.533C540.518 117.283 550.962 121.969 560.696 125.27L636.204 151.701C666.243 161.944 696.219 172.368 726.132 182.973C736.139 186.477 755.632 192.088 764.221 196.786C770.451 200.193 787.639 219.168 793.643 225.228C788.293 242.774 783.114 260.372 778.106 278.019C774.109 278.05 770.115 277.785 766.124 277.572C757.453 277.022 748.777 277.211 740.101 276.88L652.04 273.498C639.95 272.936 627.518 273.143 615.509 271.655C609.763 270.943 604.038 268.772 598.538 267.037L575.096 259.625C541.488 249.17 507.932 238.546 474.431 227.752C457.825 222.604 441.253 217.342 424.718 211.968C417.909 209.801 410.012 208.45 403.703 205.155C395.441 200.84 386.171 192.462 378.426 186.68L322.28 144.741C331.207 131.437 341.864 118.634 351.698 105.955Z"/><path fill="#9C01F5" transform="matrix(0.99707 0 0 0.99707 0 3.05176e-05)" d="M151.781 351.135C169.065 360.606 185.98 370.725 203.054 380.567L307.512 441.213L373.186 479.355C382.663 484.902 392.48 490.092 401.703 496.043L377.865 769.166L204.001 455.168C189.61 428.663 174.572 402.515 160.387 375.896C156.877 369.309 150.722 360.74 148.312 354.056C149.417 352.651 150.119 351.84 151.781 351.135Z"/><path fill="#9C01F5" transform="matrix(0.99707 0 0 0.99707 0 3.05176e-05)" d="M611.482 301.838C614.299 303.46 727.389 449.946 736.295 461.365C748.226 476.659 761.903 492.393 772.967 508.052C755.625 505.891 737.952 505.016 720.53 503.566L621.682 495.205L447.395 480.195C469.224 457.554 490.234 434.031 511.454 410.817L611.482 301.838Z"/><path fill="#9C01F5" transform="matrix(0.99707 0 0 0.99707 0 3.05176e-05)" d="M384.727 233.435C385.345 233.506 384.976 233.403 385.728 234.002C386.48 241.538 386.532 249.196 386.979 256.761C388.011 271.742 388.88 286.734 389.587 301.735C392.585 357.224 394.752 412.882 398.718 468.308C385.955 460.421 372.812 453.047 359.874 445.445L252.071 383.063L188.244 345.938C175.854 338.814 163.304 331.929 151.105 324.482C160.826 321.436 170.463 317.287 179.997 313.644L241.156 289.768C288.897 271.015 337.263 252.736 384.727 233.435Z"/><path fill="#9C01F5" transform="matrix(0.99707 0 0 0.99707 0 3.05176e-05)" d="M408.488 229.926C416.636 233.179 425.208 235.634 433.553 238.338L477.481 252.62C515.339 265.065 553.19 278.327 591.444 289.478C581.005 301.62 569.712 313.222 558.899 325.046L503.389 386.305C476.469 416.013 449.393 445.579 422.163 475.003L412.743 308.399C411.313 282.259 409.452 256.085 408.488 229.926Z"/><path fill="#9C01F5" transform="matrix(0.99707 0 0 0.99707 0 3.05176e-05)" d="M635.179 295.704L727.176 299.554C742.75 300.152 758.415 300.383 773.96 301.466C776.047 321.014 776.283 341.09 777.373 360.729L784.576 486.101C770.804 468.526 635.513 297.126 635.179 295.704Z"/><path fill="#9C01F5" transform="matrix(0.99707 0 0 0.99707 0 3.05176e-05)" d="M797.943 317.24C801.254 319.584 817.473 339.654 821.374 344.033C854.062 380.509 886.402 417.295 918.389 454.388C907.328 459.227 896.363 464.317 885.36 469.289C860.182 480.893 834.728 492.879 809.024 503.224L797.943 317.24Z"/><path fill="#9C01F5" transform="matrix(0.99707 0 0 0.99707 0 3.05176e-05)" d="M264.257 168.609L265.135 168.632C264.364 171.738 139.658 290.546 126.236 304.467C125.685 299.829 124.766 295.217 123.964 290.616L108.969 199.191C132.533 195.19 155.978 190.249 179.418 185.585C207.736 180.119 236.016 174.46 264.257 168.609Z"/><path fill="#9C01F5" transform="matrix(0.99707 0 0 0.99707 0 3.05176e-05)" d="M306.629 161.352C310.733 163.008 324.978 175.039 329.461 178.484L374.992 213.127C353.979 220.722 333.261 229.374 312.502 237.646L220.124 274.233C203.519 281.096 186.011 286.433 169.75 293.955L306.629 161.352Z"/><path fill="#9C01F5" transform="matrix(0.99707 0 0 0.99707 0 3.05176e-05)" d="M569.55 716.289C573.795 711.598 587.903 701.641 593.838 696.988L652.148 651.042L748.608 573.773C760.355 564.339 772.167 554.985 784.042 545.712C790.461 540.693 796.911 535.112 803.771 530.716C811.198 525.956 820.181 522.83 828.211 519.17C839.881 513.851 851.395 508.187 863.04 502.811L863.468 503.219C863.821 503.55 864.201 503.851 864.573 504.161C865.121 504.617 865.264 504.904 865.515 505.55C789.996 561.716 714.006 617.244 637.552 672.129L591.939 704.589C587.299 707.856 580.966 713.495 575.901 715.701C575.847 715.344 575.973 714.866 576.023 714.506L577.362 713.784C577.763 712.759 577.913 712.792 577.632 711.656C574.51 712.443 572.881 715.862 569.55 716.289Z"/><path fill="#9C01F5" transform="matrix(0.99707 0 0 0.99707 0 3.05176e-05)" d="M873.474 329.271C876.895 331.301 946.359 421.156 952.733 430.617C950.86 432.426 948.743 434.025 946.729 435.675C943.848 437.901 941.098 440.334 938.31 442.677C930.58 430.361 923.561 417.523 916.365 404.889L873.474 329.271Z"/><path fill="#9C01F5" transform="matrix(0.99707 0 0 0.99707 0 3.05176e-05)" d="M806.262 262.823C806.406 262.973 806.553 263.12 806.694 263.272C809.7 266.516 815.224 278.192 817.892 282.974C826.865 299.119 835.944 315.204 845.129 331.228C846.613 333.843 855.967 348.849 855.865 350.789C854.915 350.178 854.094 348.895 853.358 348.02C836.144 326.524 816.972 306.596 799.815 285.007C801.884 277.589 804.033 270.194 806.262 262.823Z"/><path fill="#9C01F5" transform="matrix(0.99707 0 0 0.99707 0 3.05176e-05)" d="M312.964 118.533C312.31 121.502 298.808 136.834 295.936 140.157C289.538 141.961 282.581 142.803 276.02 143.969C261.021 146.555 246.006 149.048 230.977 151.449L230.961 151.381C231.073 151.152 231.112 150.87 231.296 150.695C231.486 150.515 305.232 122.296 312.964 118.533Z"/><path fill="#B500EC" transform="matrix(0.99707 0 0 0.99707 0 3.05176e-05)" d="M569.55 716.289C572.881 715.862 574.51 712.443 577.632 711.656C577.913 712.792 577.763 712.759 577.362 713.784L576.023 714.506C575.973 714.866 575.847 715.344 575.901 715.701C565.878 724.114 554.116 730.8 543.383 738.316C540.518 740.323 537.296 742.267 534.658 744.542L533.811 743.991C541.294 738.413 548.659 732.678 555.901 726.789C560.269 723.283 564.763 719.195 569.55 716.289Z"/><path fill="#B500EC" transform="matrix(0.99707 0 0 0.99707 0 3.05176e-05)" d="M879.382 494.903C874.934 498.679 870.001 501.814 865.515 505.55C865.264 504.904 865.121 504.617 864.573 504.161C864.201 503.851 863.821 503.55 863.468 503.219L863.04 502.811C868.547 500.3 873.996 497.664 879.382 494.903Z"/><path fill="#B500EC" transform="matrix(0.99707 0 0 0.99707 0 3.05176e-05)" d="M143.377 346.374L151.781 351.135C150.119 351.84 149.417 352.651 148.312 354.056C146.776 351.421 145.076 348.905 143.377 346.374Z"/><path fill="#380248" transform="matrix(0.99707 0 0 0.99707 0 3.05176e-05)" d="M526.434 749.492C528.742 747.546 531.143 745.418 533.811 743.991L534.658 744.542C532.393 746.701 529.189 748.055 526.434 749.492Z"/></svg>